<svg xmlns="http://www.w3.org/2000/svg" viewBox="0 0 100 100"><polygon points="40.79,6.00 41.26,6.00 41.80,6.35 42.37,6.91 42.93,7.52 43.45,8.09 43.95,8.63 44.44,9.15 44.92,9.67 45.42,10.20 45.91,10.74 46.42,11.28 46.92,11.82 47.43,12.37 47.94,12.91 48.44,13.46 48.95,14.00 49.46,14.54 49.97,15.08 50.47,15.62 50.98,16.16 51.49,16.70 51.99,17.24 52.50,17.77 53.01,18.31 53.51,18.85 54.02,19.39 54.52,19.92 55.03,20.46 55.53,21.00 56.04,21.54 56.54,22.08 57.04,22.62 57.55,23.17 58.05,23.71 58.56,24.25 59.07,24.79 59.58,25.33 60.09,25.87 60.60,26.40 61.11,26.94 61.62,27.48 62.14,28.01 62.66,28.54 63.17,29.08 63.66,29.62 64.12,30.18 64.54,30.76 64.90,31.36 65.20,31.98 65.43,32.64 65.60,33.32 65.72,34.02 65.83,34.72 65.95,35.42 66.09,36.11 66.24,36.80 66.41,37.48 66.57,38.16 66.73,38.84 66.88,39.53 67.03,40.22 67.18,40.91 67.32,41.60 67.46,42.29 67.60,42.98 67.75,43.66 67.90,44.35 68.05,45.03 68.20,45.72 68.37,46.41 68.66,47.06 69.16,47.58 69.79,47.86 70.46,47.82 71.13,47.60 71.79,47.33 72.43,47.06 73.07,46.80 73.72,46.57 74.39,46.38 75.08,46.25 75.79,46.15 76.50,46.09 77.23,46.06 77.97,46.05 78.71,46.07 79.44,46.13 80.17,46.21 80.89,46.34 81.58,46.51 82.26,46.71 82.91,46.97 83.52,47.27 84.11,47.62 84.66,48.02 85.20,48.46 85.71,48.93 86.21,49.43 86.70,49.97 87.19,50.53 87.66,51.11 88.13,51.69 88.57,52.27 88.97,52.84 89.33,53.40 89.62,54.00 89.82,54.67 89.92,55.42 89.91,56.22 89.77,56.98 89.50,57.63 89.09,58.07 88.56,58.24 87.97,58.01 87.37,57.44 86.76,56.89 86.14,56.57 85.52,56.44 84.89,56.46 84.25,56.62 83.61,56.86 82.96,57.17 82.31,57.49 81.66,57.81 81.01,58.10 80.37,58.38 79.73,58.67 79.11,58.96 78.50,59.27 77.91,59.62 77.35,60.00 76.81,60.43 76.31,60.92 75.83,61.44 75.36,62.00 74.92,62.58 74.50,63.18 74.08,63.79 73.68,64.40 73.29,65.01 72.89,65.61 72.49,66.20 72.08,66.77 71.66,67.33 71.22,67.87 70.75,68.39 70.26,68.89 69.74,69.36 69.19,69.82 68.64,70.26 68.06,70.69 67.49,71.10 66.90,71.51 66.32,71.91 65.74,72.30 65.16,72.69 64.57,73.08 63.98,73.46 63.39,73.85 62.79,74.23 62.19,74.62 61.59,75.02 61.01,75.45 60.49,75.93 60.06,76.48 59.78,77.09 59.72,77.78 59.84,78.51 59.99,79.24 60.10,79.96 60.20,80.68 60.27,81.39 60.33,82.10 60.38,82.81 60.44,83.51 60.52,84.23 60.63,84.95 60.78,85.68 60.93,86.42 60.94,87.14 60.71,87.78 60.29,88.19 59.75,88.27 59.12,88.09 58.44,87.76 57.75,87.41 57.08,87.13 56.43,86.91 55.80,86.71 55.18,86.47 54.58,86.16 54.00,85.77 53.47,85.31 53.02,84.79 52.66,84.22 52.37,83.61 52.13,82.96 51.90,82.28 51.66,81.59 51.38,80.92 51.03,80.31 50.58,79.80 50.03,79.40 49.40,79.14 48.71,79.02 48.00,79.03 47.30,79.17 46.63,79.45 46.01,79.83 45.47,80.30 45.02,80.85 44.64,81.44 44.28,82.06 43.91,82.66 43.52,83.25 43.11,83.83 42.70,84.40 42.30,84.98 41.90,85.56 41.52,86.15 41.13,86.74 40.75,87.34 40.36,87.93 39.97,88.52 39.57,89.11 39.15,89.68 38.70,90.22 38.20,90.68 37.64,91.04 37.01,91.32 36.34,91.52 35.64,91.69 34.94,91.84 34.25,92.00 33.57,92.17 32.89,92.34 32.22,92.51 31.54,92.67 30.87,92.83 30.19,92.99 29.50,93.14 28.81,93.27 28.11,93.39 27.40,93.51 26.68,93.61 25.97,93.69 25.25,93.77 24.53,93.84 23.81,93.90 23.09,93.94 22.38,93.98 21.67,94.00 20.96,94.00 20.26,93.96 19.56,93.88 18.86,93.76 18.16,93.62 17.44,93.49 16.70,93.39 15.95,93.35 15.24,93.26 14.71,92.93 14.49,92.36 14.68,91.77 15.22,91.30 15.84,90.88 16.43,90.47 17.00,90.05 17.57,89.63 18.15,89.22 18.72,88.80 19.30,88.38 19.87,87.96 20.44,87.55 21.02,87.13 21.60,86.71 22.17,86.29 22.75,85.87 23.32,85.45 23.90,85.03 24.47,84.61 25.05,84.19 25.63,83.77 26.20,83.35 26.78,82.93 27.35,82.51 27.93,82.09 28.51,81.67 29.08,81.25 29.66,80.83 30.23,80.41 30.81,79.99 31.38,79.57 31.95,79.15 32.53,78.73 33.10,78.31 33.68,77.89 34.25,77.47 34.82,77.05 35.40,76.63 35.97,76.22 36.55,75.80 37.13,75.38 37.71,74.96 38.29,74.55 38.87,74.13 39.45,73.70 40.02,73.27 40.58,72.82 41.12,72.35 41.65,71.85 42.15,71.33 42.64,70.79 43.11,70.23 43.56,69.66 44.02,69.09 44.47,68.51 44.92,67.94 45.37,67.37 45.83,66.82 46.29,66.27 46.76,65.73 47.23,65.18 47.69,64.62 48.16,64.06 48.61,63.48 48.88,62.89 48.73,62.30 48.25,61.72 47.72,61.18 47.20,60.66 46.70,60.14 46.22,59.58 45.74,58.99 45.23,58.44 44.66,57.98 44.01,57.67 43.34,57.43 42.70,57.16 42.17,56.74 41.83,56.15 41.84,55.62 42.32,55.41 43.04,55.45 43.77,55.61 44.44,55.86 45.06,56.19 45.63,56.59 46.16,57.04 46.67,57.53 47.15,58.06 47.63,58.61 48.11,59.18 48.60,59.74 49.12,60.30 49.67,60.84 50.18,61.37 50.59,61.92 50.83,62.51 50.85,63.12 50.61,63.73 50.16,64.31 49.66,64.87 49.17,65.43 48.70,65.98 48.23,66.53 47.77,67.08 47.32,67.63 46.88,68.19 46.43,68.76 45.98,69.33 45.53,69.90 45.08,70.48 44.62,71.05 44.15,71.60 43.67,72.15 43.19,72.67 42.69,73.18 42.18,73.67 41.66,74.13 41.11,74.58 40.54,75.02 39.95,75.43 39.33,75.84 38.71,76.25 38.25,76.78 38.08,77.43 38.32,78.00 38.91,78.33 39.65,78.43 40.38,78.36 41.10,78.23 41.81,78.12 42.52,78.04 43.23,77.97 43.94,77.91 44.65,77.86 45.36,77.80 46.08,77.73 46.80,77.64 47.53,77.53 48.27,77.39 49.01,77.27 49.72,77.20 50.39,77.23 51.01,77.40 51.55,77.73 51.97,78.24 52.27,78.87 52.53,79.55 52.79,80.21 53.04,80.87 53.31,81.51 53.60,82.13 53.93,82.73 54.30,83.31 54.74,83.87 55.24,84.39 55.80,84.84 56.43,85.18 57.11,85.35 57.81,85.31 58.39,85.01 58.70,84.43 58.79,83.71 58.78,82.97 58.70,82.25 58.60,81.54 58.48,80.83 58.39,80.12 58.32,79.42 58.25,78.70 58.19,77.98 58.10,77.24 58.00,76.49 58.04,75.81 58.36,75.27 58.92,74.85 59.54,74.45 60.13,74.05 60.71,73.64 61.28,73.24 61.86,72.84 62.44,72.45 63.03,72.06 63.62,71.67 64.21,71.29 64.80,70.90 65.39,70.50 65.98,70.10 66.56,69.69 67.14,69.27 67.70,68.84 68.25,68.39 68.78,67.91 69.29,67.42 69.78,66.91 70.24,66.36 70.68,65.80 71.11,65.23 71.52,64.64 71.92,64.04 72.32,63.44 72.72,62.84 73.13,62.25 73.54,61.67 73.96,61.09 74.39,60.53 74.84,59.98 75.31,59.45 75.79,58.93 76.30,58.44 76.82,57.97 77.37,57.51 77.93,57.07 78.50,56.63 79.09,56.20 79.67,55.77 80.26,55.34 80.82,54.86 81.27,54.27 81.42,53.67 81.04,53.20 80.38,52.80 79.81,52.33 79.28,51.86 78.71,51.44 78.08,51.10 77.41,50.86 76.72,50.71 76.01,50.65 75.29,50.66 74.55,50.68 73.81,50.69 73.07,50.66 72.32,50.58 71.57,50.48 70.83,50.38 70.10,50.30 69.38,50.28 68.68,50.33 68.00,50.47 67.34,50.74 66.72,51.15 66.28,51.68 66.29,52.27 66.67,52.91 67.11,53.61 67.34,54.27 67.10,54.76 66.54,54.97 65.98,54.81 65.53,54.36 65.14,53.74 64.77,53.05 64.40,52.41 64.02,51.81 63.64,51.24 63.26,50.68 62.89,50.10 62.51,49.52 62.14,48.93 61.77,48.33 61.40,47.73 61.03,47.12 60.66,46.52 60.28,45.92 59.91,45.32 59.54,44.73 59.16,44.13 58.78,43.54 58.41,42.95 58.03,42.36 57.66,41.77 57.28,41.18 56.91,40.59 56.53,39.99 56.16,39.40 55.79,38.80 55.43,38.21 55.06,37.61 54.70,37.01 54.33,36.41 53.94,35.81 53.53,35.23 53.07,34.67 52.57,34.14 52.04,33.65 51.47,33.21 50.88,32.82 50.28,32.46 49.67,32.11 49.07,31.75 48.47,31.39 47.87,31.01 47.28,30.64 46.69,30.26 46.10,29.88 45.50,29.51 44.91,29.13 44.32,28.76 43.72,28.38 43.13,28.01 42.53,27.64 41.94,27.27 41.34,26.90 40.75,26.53 40.15,26.16 39.55,25.79 38.96,25.42 38.36,25.06 37.76,24.69 37.16,24.33 36.57,23.96 35.97,23.60 35.37,23.23 34.77,22.87 34.17,22.51 33.57,22.15 32.97,21.78 32.37,21.42 31.77,21.06 31.17,20.70 30.57,20.35 29.97,19.99 29.37,19.63 28.77,19.27 28.17,18.92 27.56,18.56 26.96,18.20 26.36,17.85 25.76,17.49 25.16,17.13 24.56,16.78 23.96,16.42 23.35,16.06 22.75,15.71 22.15,15.35 21.56,14.99 20.96,14.63 20.36,14.27 19.76,13.90 19.16,13.54 18.54,13.18 17.90,12.97 17.29,13.17 16.85,13.74 16.84,14.38 17.16,15.00 17.51,15.62 17.81,16.24 18.10,16.86 18.42,17.48 18.78,18.09 19.20,18.67 19.66,19.22 20.17,19.71 20.72,20.14 21.29,20.53 21.90,20.87 22.52,21.19 23.16,21.48 23.80,21.77 24.44,22.05 25.07,22.34 25.70,22.65 26.32,22.97 26.93,23.29 27.54,23.62 28.14,23.95 28.75,24.27 29.36,24.60 29.98,24.92 30.60,25.23 31.23,25.54 31.85,25.84 32.48,26.14 33.11,26.45 33.73,26.74 34.35,27.05 34.96,27.36 35.57,27.74 36.14,28.24 36.38,28.77 36.06,29.22 35.45,29.41 34.81,29.24 34.18,28.90 33.55,28.55 32.93,28.21 32.31,27.89 31.69,27.57 31.08,27.25 30.46,26.94 29.85,26.63 29.23,26.33 28.61,26.02 27.99,25.71 27.37,25.40 26.75,25.08 26.13,24.77 25.50,24.46 24.88,24.15 24.26,23.83 23.64,23.52 23.02,23.21 22.40,22.90 21.78,22.59 21.16,22.28 20.54,21.97 19.92,21.67 19.30,21.37 18.68,21.07 18.06,20.75 17.44,20.41 16.83,20.04 16.19,19.79 15.50,19.83 14.94,20.19 14.76,20.81 14.90,21.49 15.24,22.06 15.65,22.60 16.03,23.21 16.39,23.86 16.76,24.51 17.17,25.11 17.64,25.62 18.17,26.06 18.74,26.43 19.35,26.75 19.99,27.03 20.65,27.28 21.31,27.51 21.98,27.75 22.64,27.98 23.29,28.22 23.95,28.45 24.60,28.69 25.25,28.93 25.90,29.17 26.54,29.41 27.19,29.65 27.83,29.89 28.48,30.13 29.12,30.37 29.77,30.61 30.42,30.86 31.06,31.10 31.71,31.34 32.37,31.58 33.02,31.82 33.67,32.06 34.33,32.30 34.98,32.54 35.64,32.78 36.28,33.02 36.93,33.27 37.57,33.51 38.20,33.75 38.84,33.99 39.50,34.23 40.18,34.47 40.88,34.73 41.39,35.15 41.53,35.77 41.27,36.26 40.65,36.36 39.90,36.20 39.23,35.95 38.61,35.68 37.98,35.41 37.34,35.16 36.69,34.92 36.03,34.69 35.38,34.45 34.73,34.21 34.08,33.97 33.43,33.73 32.78,33.49 32.13,33.25 31.48,33.01 30.83,32.77 30.19,32.52 29.54,32.28 28.89,32.04 28.24,31.80 27.59,31.56 26.94,31.32 26.29,31.07 25.64,30.83 24.99,30.59 24.34,30.35 23.69,30.11 23.04,29.87 22.39,29.64 21.74,29.40 21.09,29.16 20.44,28.92 19.80,28.69 19.15,28.44 18.49,28.17 17.83,27.93 17.14,27.97 16.51,28.40 16.27,28.98 16.54,29.51 17.01,30.05 17.48,30.62 17.93,31.21 18.39,31.81 18.86,32.39 19.35,32.95 19.86,33.46 20.41,33.91 20.99,34.30 21.61,34.62 22.26,34.87 22.93,35.08 23.62,35.24 24.32,35.36 25.02,35.48 25.73,35.59 26.42,35.71 27.11,35.85 27.80,35.99 28.48,36.14 29.16,36.29 29.84,36.45 30.52,36.61 31.21,36.76 31.90,36.91 32.59,37.06 33.29,37.21 33.99,37.35 34.69,37.49 35.38,37.63 36.07,37.77 36.75,37.91 37.43,38.06 38.09,38.21 38.75,38.36 39.42,38.51 40.13,38.66 40.88,38.80 41.66,38.96 42.35,39.16 42.84,39.46 43.03,39.89 42.86,40.44 42.36,40.96 41.71,41.39 41.40,41.91 41.66,42.52 42.23,42.98 42.92,43.17 43.69,43.18 44.45,43.15 45.14,43.32 45.63,43.82 45.72,44.37 45.29,44.71 44.59,44.86 43.86,44.88 43.12,44.84 42.39,44.77 41.66,44.71 40.94,44.64 40.21,44.57 39.49,44.50 38.77,44.43 38.05,44.35 37.33,44.28 36.61,44.21 35.89,44.14 35.18,44.08 34.46,44.01 33.73,43.95 33.01,43.89 32.29,43.83 31.56,43.78 30.83,43.73 30.10,43.68 29.37,43.64 28.63,43.61 27.90,43.57 27.17,43.51 26.45,43.43 25.74,43.32 25.06,43.17 24.39,42.97 23.75,42.72 23.13,42.40 22.55,42.02 21.99,41.58 21.45,41.09 20.93,40.58 20.42,40.04 19.91,39.49 19.41,38.94 18.90,38.40 18.39,37.86 17.89,37.33 17.38,36.79 16.87,36.25 16.36,35.70 15.85,35.14 15.47,34.57 15.55,33.99 16.09,33.40 16.51,32.81 16.55,32.22 16.22,31.65 15.69,31.09 15.17,30.53 14.69,29.98 14.24,29.42 13.80,28.86 13.36,28.31 12.90,27.76 12.40,27.21 11.86,26.67 11.34,26.11 10.94,25.53 10.75,24.90 10.85,24.31 11.25,24.03 11.93,24.17 12.72,24.31 13.42,24.15 13.83,23.71 13.85,23.09 13.63,22.44 13.29,21.83 12.89,21.25 12.49,20.67 12.11,20.07 11.78,19.46 11.44,18.85 11.08,18.26 10.67,17.69 10.29,17.08 10.08,16.36 10.17,15.72 10.62,15.44 11.30,15.49 11.96,15.74 12.57,16.11 13.16,16.49 13.79,16.80 14.47,16.93 15.10,16.78 15.51,16.26 15.60,15.59 15.33,14.97 14.93,14.38 14.59,13.76 14.29,13.12 13.99,12.49 13.67,11.89 13.29,11.32 12.92,10.74 12.60,10.11 12.39,9.37 12.37,8.63 12.63,8.21 13.16,8.27 13.82,8.56 14.46,8.88 15.09,9.21 15.71,9.55 16.31,9.91 16.91,10.27 17.51,10.63 18.10,10.99 18.69,11.36 19.29,11.72 19.89,12.08 20.48,12.44 21.08,12.80 21.68,13.16 22.29,13.51 22.89,13.87 23.49,14.22 24.09,14.58 24.70,14.94 25.30,15.29 25.90,15.65 26.51,16.00 27.11,16.36 27.71,16.72 28.31,17.07 28.91,17.43 29.51,17.79 30.11,18.15 30.71,18.51 31.31,18.87 31.91,19.23 32.51,19.59 33.11,19.95 33.71,20.30 34.31,20.66 34.91,21.02 35.51,21.38 36.11,21.74 36.71,22.10 37.32,22.46 37.93,22.81 38.55,23.04 39.14,22.86 39.57,22.28 39.67,21.59 39.51,20.91 39.30,20.23 39.15,19.53 39.03,18.83 38.93,18.14 38.80,17.45 38.64,16.77 38.48,16.09 38.34,15.38 38.26,14.65 38.28,13.88 38.48,13.31 38.96,13.24 39.66,13.49 40.39,13.58 40.94,13.34 41.18,12.78 41.17,12.06 41.08,11.33 40.98,10.63 40.86,9.96 40.70,9.28 40.49,8.59 40.30,7.87 40.25,7.13 40.43,6.44 40.79,6.00" fill="black"/></svg>